General

Format                         : MPEG-4
Format profile                 : Base Media
Codec ID                       : isom
File size                      : 138 MiB
Duration                       : 5mn 47s
Overall bit rate mode          : Variable
Overall bit rate               : 3 332 Kbps
Encoded date                   : UTC 2012-09-28 03:39:17
Tagged date                    : UTC 2012-09-28 03:39:17

Video
ID                             : 1
Format                         : AVC
Format/Info                    : Advanced Video Codec
Format profile                 : High@L3.0
Format settings, CABAC         : Yes
Format settings, ReFrames      : 2 frames
Codec ID                       : avc1
Codec ID/Info                  : Advanced Video Coding
Duration                       : 5mn 47s
Bit rate                       : 3 261 Kbps
Maximum bit rate               : 7 822 Kbps
Width                          : 720 pixels
Height                         : 480 pixels
Display aspect ratio           : 16:9
Original display aspect ratio  : 16:9
Frame rate mode                : Constant
Frame rate                     : 29.970 fps
Standard                       : NTSC
Color space                    : YUV
Chroma subsampling             : 4:2:0
Bit depth                      : 8 bits
Scan type                      : Progressive
Bits/(Pixel*Frame)             : 0.315
Stream size                    : 135 MiB (98%)


Audio
ID                             : 2
Format                         : AAC
Format/Info                    : Advanced Audio Codec
Format profile                 : LC
Codec ID                       : 40
Duration                       : 5mn 47s
Bit rate mode                  : Variable
Bit rate                       : 66.2 Kbps
Maximum bit rate               : 108 Kbps
Channel(s)                     : 2 channels
Channel positions              : Front: L R
Sampling rate                  : 48.0 KHz
Compression mode               : Lossy
Stream size                    : 2.80 MiB (2%)